<?xml version="1.0" encoding="UTF-8" standalone="no"?>
<!-- Created with Inkscape (http://www.inkscape.org/) -->

<svg
   width="122.08417mm"
   height="78.26693mm"
   viewBox="0 0 122.08417 78.26693"
   version="1.1"
   id="svg1"
   xml:space="preserve"
   sodipodi:docname="nahual.svg"
   inkscape:version="1.4 (e7c3feb100, 2024-10-09)"
   xmlns:inkscape="http://www.inkscape.org/namespaces/inkscape"
   xmlns:sodipodi="http://sodipodi.sourceforge.net/DTD/sodipodi-0.dtd"
   xmlns="http://www.w3.org/2000/svg"
   xmlns:svg="http://www.w3.org/2000/svg"><sodipodi:namedview
     id="namedview1"
     pagecolor="#ffffff"
     bordercolor="#000000"
     borderopacity="0.25"
     inkscape:showpageshadow="2"
     inkscape:pageopacity="0.0"
     inkscape:pagecheckerboard="0"
     inkscape:deskcolor="#d1d1d1"
     inkscape:document-units="mm"
     inkscape:zoom="0.73449625"
     inkscape:cx="432.94979"
     inkscape:cy="260.04217"
     inkscape:window-width="1440"
     inkscape:window-height="2523"
     inkscape:window-x="2560"
     inkscape:window-y="0"
     inkscape:window-maximized="1"
     inkscape:current-layer="layer1"
     inkscape:export-bgcolor="#ffffff00"
     showgrid="false"><inkscape:page
       x="0"
       y="0"
       width="122.08417"
       height="78.26693"
       id="page2"
       margin="0"
       bleed="0" /></sodipodi:namedview><defs
     id="defs1" /><g
     inkscape:label="Layer 1"
     inkscape:groupmode="layer"
     id="layer1"
     transform="translate(-55.699614,-318.98748)"><g
       id="g1"
       transform="translate(-2.5215695,218.6561)"
       inkscape:export-filename="../projects/nahual/logo.svg"
       inkscape:export-xdpi="198.66847"
       inkscape:export-ydpi="198.66847"><path
         style="fill:#ffffff;fill-opacity:1;stroke:#000000;stroke-width:1;stroke-dasharray:none;stroke-opacity:1"
         d="m 151.51478,174.55978 c 1.25244,0.57684 3.68446,1.29394 1.97744,-4.47795"
         id="path17-6-4-4-3-6-3-2"
         sodipodi:nodetypes="cc" /><path
         style="fill:#ffffff;fill-opacity:1;stroke:#000000;stroke-width:1;stroke-dasharray:none;stroke-opacity:1"
         d="m 148.67499,175.55572 c 1.15762,0.74917 3.46286,1.80502 2.59447,-4.15103"
         id="path17-6-4-4-3-6-3"
         sodipodi:nodetypes="cc" /><path
         style="fill:#ffffff;fill-opacity:1;stroke:#000000;stroke-width:1;stroke-dasharray:none;stroke-opacity:1"
         d="m 145.34119,176.1754 c 0.97204,0.97799 3.00036,2.49947 3.41709,-3.50511"
         id="path17-6-4-4-3-6"
         sodipodi:nodetypes="cc" /><path
         style="fill:#ffffff;fill-opacity:1;stroke:#000000;stroke-width:1;stroke-dasharray:none;stroke-opacity:1"
         d="m 141.96067,176.48233 c 0.80514,1.11941 2.56731,2.94253 3.92843,-2.92058"
         id="path17-6-4-4-3"
         sodipodi:nodetypes="cc" /><path
         style="fill:#ffffff;fill-opacity:1;stroke:#000000;stroke-width:1;stroke-dasharray:none;stroke-opacity:1"
         d="m 138.18259,176.55302 c 0.5144,1.27934 1.79001,3.47065 4.5124,-1.89752"
         id="path17-6-4-4"
         sodipodi:nodetypes="cc" /><path
         style="fill:#ffffff;fill-opacity:1;stroke:#000000;stroke-width:1;stroke-dasharray:none;stroke-opacity:1"
         d="m 134.81973,175.66469 c 0.1814,1.3669 0.87434,3.80593 4.84183,-0.7204"
         id="path17-6-4"
         sodipodi:nodetypes="cc" /><path
         style="fill:#ffffff;fill-opacity:1;stroke:#000000;stroke-width:1;stroke-dasharray:none;stroke-opacity:1"
         d="m 131.17697,174.7069 c -0.0966,1.3755 -0.0664,3.42638 4.7287,-0.2117"
         id="path17-6"
         sodipodi:nodetypes="cc" /><path
         style="fill:#ffffff;fill-opacity:1;stroke:#000000;stroke-width:1;stroke-dasharray:none;stroke-opacity:1"
         d="m 128.84066,172.21833 c -2.56614,1.61609 -0.72764,4.42137 3.67959,1.59248"
         id="path17"
         sodipodi:nodetypes="cc" /><path
         style="fill:#ffffff;fill-opacity:1;stroke:#000000;stroke-width:2;stroke-dasharray:none;stroke-opacity:1"
         d="m 89.531371,152.87975 c -1.273585,0.50943 -18.59434,7.76887 -21.650944,2.54717 -3.056604,-5.2217 -7.768868,-2.92925 -3.566038,1.65566 4.202829,4.5849 8.087263,4.52122 13.054244,3.50236 4.966983,-1.01887 17.213368,-5.58644 17.213368,-5.58644"
         id="path8"
         sodipodi:nodetypes="csssc"
         inkscape:export-filename="../Downloads/nahual.png"
         inkscape:export-xdpi="96"
         inkscape:export-ydpi="96" /><path
         style="fill:#ffffff;fill-opacity:1;stroke:#000000;stroke-width:3;stroke-dasharray:none;stroke-opacity:1"
         d="m 149.8855,156.25535 c 10.55799,3.31013 16.49059,2.6265 26.05898,-2.82753 0.73433,-0.42397 3.2473,-0.32041 2.8145,-1.42738 -0.77778,-1.98931 -7.30411,-8.64586 -8.78497,-10.36494 -5.40857,-6.2786 -16.86875,-9.18965 -28.55471,-2.65326 l -0.15213,-4.61143 c 13.35333,-0.98736 19.89446,-13.97804 20.94655,-22.19792 0.28806,-2.2506 0.12537,-7.63853 -0.32216,-9.72708 -0.24903,-1.16219 -1.36247,-0.29519 -2.20792,-0.36009 -7.35321,-0.56455 -9.13167,0.32058 -10.4465,0.63039 -8.40263,1.97987 -11.46547,4.89144 -13.73355,12.3827 -0.98622,3.2574 -1.53096,9.45589 -1.53096,9.45589 l -1.8734,-0.71081 c 0,0 -16.52305,-8.85329 -26.26597,-6.30612 -9.742929,2.54717 -37.952832,7.32311 -41.900945,7.00472 -3.212147,-0.25905 -4.45755,0.82783 -3.183965,6.55896 1.273586,5.73113 -2.929244,11.08019 0.12736,9.8066 3.056604,-1.27358 9.16981,-2.29245 13.882076,2.67453 4.712264,4.96698 13.499998,9.67925 18.466985,11.08019 2.62867,0.74142 5.37914,-0.59559 3.52987,2.58316 -0.40581,0.69754 -1.36399,1.52209 -3.40252,2.00174 -4.330187,1.01886 -20.249997,7.3868 -10.188676,10.69812 10.061326,3.31132 17.268645,-0.17856 17.268645,-0.17856 0,0 19.66532,-7.71767 31.25494,-4.91578"
         id="path2-3"
         sodipodi:nodetypes="csssccsssssccssssssssscc"
         inkscape:export-filename="../Downloads/nahual.png"
         inkscape:export-xdpi="96"
         inkscape:export-ydpi="96" /><path
         style="fill:#bd4a50;fill-opacity:1;stroke:#000000;stroke-width:1;stroke-dasharray:none;stroke-opacity:1"
         d="m 131.94175,165.74295 -3.43868,6.11321 c 8.97825,5.1836 16.19464,3.15161 24.96226,-1.91038 l -4.01603,-5.36367"
         id="path16"
         sodipodi:nodetypes="cccc" /><circle
         style="fill:#717065;fill-opacity:1;stroke:#000000;stroke-width:4.05586;stroke-dasharray:none;stroke-opacity:1"
         id="path4"
         r="10.086278"
         cy="159.9017"
         cx="140.32158" /><circle
         style="fill:#f6d57a;fill-opacity:1;stroke:#000000;stroke-width:3.1062;stroke-dasharray:none;stroke-opacity:1"
         id="path5"
         cx="140.32158"
         cy="159.9017"
         r="4.5519838" /><path
         sodipodi:type="spiral"
         style="fill:none;fill-rule:evenodd;stroke:#000000;stroke-width:3.1081;stroke-dasharray:none"
         id="path6"
         sodipodi:cx="77.988533"
         sodipodi:cy="133.64319"
         sodipodi:expansion="1"
         sodipodi:revolution="1.3364909"
         sodipodi:radius="8.0958261"
         sodipodi:argument="-17.965883"
         sodipodi:t0="0.089452371"
         d="m 77.942184,134.36589 c -0.724124,0.84538 -1.916075,-0.10463 -2.187633,-0.86597 -0.603753,-1.69268 0.881518,-3.29997 2.474177,-3.60199 2.537422,-0.48117 4.732065,1.66339 5.01634,4.08238 0.395628,3.36652 -2.447389,6.17992 -5.690576,6.43069 -3.528198,0.2728 -6.679594,-2.25985 -7.578358,-5.60856"
         transform="matrix(0.58300585,-0.27234097,0.27234097,0.58300585,-15.735956,74.026897)" /><path
         style="fill:none;stroke:#000000;stroke-width:3;stroke-dasharray:none;stroke-opacity:1"
         d="m 99.592691,132.56607 c 0,0 1.018869,5.66745 5.985849,5.66745 4.96698,0 8.53302,-0.89151 9.74292,2.80189"
         id="path7" /></g></g></svg>
